<?xml version="1.0" encoding="utf-8"?>
<!-- Generator: Adobe Illustrator 27.5.0, SVG Export Plug-In . SVG Version: 6.00 Build 0)  -->
<svg version="1.1" id="Layer_1" xmlns="http://www.w3.org/2000/svg" xmlns:xlink="http://www.w3.org/1999/xlink" x="0px" y="0px"
	 viewBox="0 0 540.9 320" style="enable-background:new 0 0 540.9 320;" xml:space="preserve">
<g>
	<path d="M305.1,305.1L305.1,305.1c-19.9,19.9-52.2,19.9-72.1,0L14.9,87C-5,67.1-5,34.8,14.9,14.9l0,0C34.8-5,67.1-5,87,14.9
		L305.1,233C325,252.9,325,285.2,305.1,305.1z"/>
	<path d="M235.5,305.3L235.5,305.3c-19.6-19.6-19.6-51.3,0-70.9L455.3,14.7c19.6-19.6,51.3-19.6,70.9,0l0,0
		c19.6,19.6,19.6,51.3,0,70.9L306.4,305.3C286.9,324.9,255.1,324.9,235.5,305.3z"/>
</g>
</svg>
