<?xml version="1.0" encoding="utf-8"?>
<!-- Generator: Adobe Illustrator 27.5.0, SVG Export Plug-In . SVG Version: 6.00 Build 0)  -->
<svg version="1.1" id="Layer_1" xmlns="http://www.w3.org/2000/svg" xmlns:xlink="http://www.w3.org/1999/xlink" x="0px" y="0px"
	 viewBox="0 0 320.1 540.9" style="enable-background:new 0 0 320.1 540.9;" xml:space="preserve">
<path d="M14.9,305.1L14.9,305.1C-5,285.2-5,252.9,14.9,233L233,14.9c19.9-19.9,52.2-19.9,72.1,0l0,0c19.9,19.9,19.9,52.2,0,72.1
	L87,305.1C67.1,325,34.8,325,14.9,305.1z"/>
<path d="M14.7,235.5L14.7,235.5c19.6-19.6,51.3-19.6,70.9,0l219.7,219.8c19.6,19.6,19.6,51.3,0,70.9l0,0
	c-19.6,19.6-51.3,19.6-70.9,0L14.7,306.4C-4.9,286.9-4.9,255.1,14.7,235.5z"/>
</svg>
