<?xml version="1.0" encoding="utf-8"?>
<!-- Generator: Adobe Illustrator 27.5.0, SVG Export Plug-In . SVG Version: 6.00 Build 0)  -->
<svg version="1.1" xmlns="http://www.w3.org/2000/svg" xmlns:xlink="http://www.w3.org/1999/xlink" x="0px" y="0px"
	 viewBox="0 0 9.1 7" style="enable-background:new 0 0 9.1 7;" xml:space="preserve">
<style type="text/css">
	.st0{fill:#03494F;}
	.st1{fill-rule:evenodd;clip-rule:evenodd;fill:#03494F;}
</style>
<g id="Layer_1">
</g>
<g id="Layer_2">
</g>
<g id="Layer_3">
	<g>
		<path class="st0" d="M0.7,0.1l3.2,3.6C4,3.9,4.3,4,4.5,4c0.3,0,0.5-0.1,0.7-0.3l3.1-3.5c0,0,0.1-0.1,0.1-0.1C8.3,0,8.2,0,8,0H1.1
			C0.9,0,0.8,0,0.7,0.1C0.7,0.1,0.7,0.1,0.7,0.1z"/>
		<path class="st0" d="M8.9,0.5c0,0,0,0.1-0.1,0.1L5.7,4.1C5.4,4.5,5,4.7,4.5,4.7c-0.5,0-0.9-0.2-1.2-0.5L0.2,0.5c0,0,0,0,0,0
			C0.1,0.7,0,0.9,0,1.1v4.8C0,6.5,0.5,7,1.1,7H8c0.6,0,1.1-0.5,1.1-1.1V1.1C9.1,0.9,9,0.7,8.9,0.5z"/>
	</g>
</g>
<g id="Layer_4">
</g>
<g id="Layer_5">
</g>
</svg>
