<?xml version="1.0" encoding="UTF-8"?>
<svg id="Layer_1" data-name="Layer 1" xmlns="http://www.w3.org/2000/svg" version="1.1" viewBox="0 0 144 144">
  <path class="new-tab-icon" d="M124.4,15c-.2,0-.3,0-.5,0h-41.4c-2.5,0-4.5,2-4.6,4.4,0,2.5,2,4.5,4.4,4.6,0,0,0,0,.1,0h31.1l-46.3,46.3c-1.8,1.7-1.9,4.6-.1,6.4s4.6,1.9,6.4.1c0,0,0,0,.1-.1l46.3-46.3v31.1c0,2.5,2,4.5,4.4,4.6,2.5,0,4.5-2,4.6-4.4,0,0,0,0,0-.1V20.1c.3-2.5-1.4-4.7-3.8-5.1-.2,0-.5,0-.7,0ZM37.5,24c-12.4,0-22.5,10.1-22.5,22.5v60c0,12.4,10.1,22.5,22.5,22.5h60c12.4,0,22.5-10.1,22.5-22.5v-30c0-2.5-2-4.5-4.4-4.6-2.5,0-4.5,2-4.6,4.4,0,0,0,0,0,.1v30c0,7.5-6,13.5-13.5,13.5h-60c-7.5,0-13.5-6-13.5-13.5v-60c0-7.5,6-13.5,13.5-13.5h30c2.5,0,4.5-2,4.6-4.4,0-2.5-2-4.5-4.4-4.6,0,0,0,0-.1,0h-30Z" fill="#000" stroke-width="0"/>
</svg>