<?xml version="1.0" encoding="utf-8"?>
<!-- Generator: Adobe Illustrator 27.5.0, SVG Export Plug-In . SVG Version: 6.00 Build 0)  -->
<svg version="1.1" xmlns="http://www.w3.org/2000/svg" xmlns:xlink="http://www.w3.org/1999/xlink" x="0px" y="0px"
	 viewBox="0 0 9.1 8.4" style="enable-background:new 0 0 9.1 8.4;" xml:space="preserve">
<style type="text/css">
	.st0{fill:#03494F;}
	.st1{fill-rule:evenodd;clip-rule:evenodd;fill:#03494F;}
</style>
<g id="Layer_1">
</g>
<g id="Layer_2">
	<path class="st1" d="M8,5.6C7.6,5.3,7.1,5.1,6.7,5.3C6.3,5.4,6.1,6,5.9,6.2C5.7,6.4,5.6,6.4,5.4,6.3c-1.3-0.5-2.3-1.4-3-2.6
		c-0.1-0.2-0.1-0.3,0-0.5C2.7,3,2.9,2.7,3,2.3C3.1,2,2.9,1.6,2.8,1.3C2.6,0.9,2.4,0.3,2,0.1C1.6-0.1,1.1,0,0.8,0.3
		C0.3,0.7,0,1.4,0,2.1c0,0.2,0,0.4,0.1,0.6C0.2,3.2,0.4,3.6,0.6,4C0.8,4.4,1,4.7,1.2,4.9c0.7,0.9,1.6,1.8,2.6,2.4
		c0.5,0.3,1,0.6,1.6,0.8C6,8.3,6.6,8.5,7.3,8.4C8,8.3,8.7,7.8,9,7.1c0.1-0.2,0.1-0.4,0.1-0.6C9,6,8.4,5.8,8,5.6z"/>
</g>
<g id="Layer_3">
</g>
<g id="Layer_4">
</g>
<g id="Layer_5">
</g>
</svg>
