<?xml version="1.0" encoding="utf-8"?>
<!-- Generator: Adobe Illustrator 27.5.0, SVG Export Plug-In . SVG Version: 6.00 Build 0)  -->
<svg version="1.1" id="Layer_1" xmlns="http://www.w3.org/2000/svg" xmlns:xlink="http://www.w3.org/1999/xlink" x="0px" y="0px"
	 viewBox="0 0 320.1 540.9" style="enable-background:new 0 0 320.1 540.9;" xml:space="preserve">
<path d="M305.1,235.8L305.1,235.8c19.9,19.9,19.9,52.2,0,72.1L87,526c-19.9,19.9-52.2,19.9-72.1,0l0,0c-19.9-19.9-19.9-52.2,0-72.1
	L233,235.8C252.9,215.9,285.2,215.9,305.1,235.8L305.1,235.8z"/>
<path d="M305.3,305.4L305.3,305.4c-19.6,19.6-51.3,19.6-70.9,0L14.7,85.6C-4.9,66-4.9,34.3,14.7,14.7l0,0C34.3-4.9,66-4.9,85.6,14.7
	l219.7,219.8C324.9,254,324.9,285.8,305.3,305.4z"/>
</svg>
