<?xml version="1.0" encoding="utf-8"?>
<!-- Generator: Adobe Illustrator 27.5.0, SVG Export Plug-In . SVG Version: 6.00 Build 0)  -->
<svg version="1.1" id="Layer_1" xmlns="http://www.w3.org/2000/svg" xmlns:xlink="http://www.w3.org/1999/xlink" x="0px" y="0px"
	 viewBox="0 0 559.6 613" style="enable-background:new 0 0 559.6 613;" xml:space="preserve">
<g>
	<g>
		<path d="M548.5,306.6c-7.2,7.2-16.7,11.1-26.8,11.1c-10.1,0-19.7-4-26.8-11.1L317.8,129.5v445.6c0,20.9-17,37.9-37.9,37.9
			c-20.9,0-38-17-38-37.9V129.5L64.8,306.7c-7.2,7.2-16.7,11.1-26.8,11.1h0c-10.2,0-19.7-4-26.8-11.2c-14.7-14.8-14.7-38.8,0.1-53.6
			L253,11.1c14.8-14.8,38.9-14.8,53.6,0L548.5,253C563.3,267.8,563.3,291.8,548.5,306.6z"/>
	</g>
</g>
</svg>
