<?xml version="1.0" encoding="UTF-8"?>
<svg id="Layer_2" data-name="Layer 2" xmlns="http://www.w3.org/2000/svg" version="1.1" viewBox="0 0 180 180">
  <rect class="github-logo-box logo-box" x="0" y="0" width="180" height="180" fill="#000" stroke-width="0"/>
  <path class="github-logo logo" d="M150,90.5c0,26.5-17.2,49-41,56.9-3,.6-4-1.3-4-2.9v-16.5c0-5.6-2-9.2-4.1-11.1,13.4-1.5,27.4-6.6,27.4-29.6s-2.3-11.9-6.2-16.1c.6-1.5,2.7-7.6-.6-15.9,0,0-5-1.6-16.5,6.2-4.8-1.4-9.9-2-15-2-5.1,0-10.2.7-15,2-11.5-7.8-16.5-6.2-16.5-6.2-3.3,8.3-1.2,14.4-.6,15.9-3.8,4.2-6.2,9.5-6.2,16.1,0,23,14,28.1,27.3,29.7-1.7,1.5-3.3,4.1-3.8,8-3.4,1.5-12.1,4.2-17.5-5,0,0-3.2-5.8-9.2-6.2,0,0-5.8,0-.4,3.7,0,0,3.9,1.8,6.7,8.8,0,0,3.5,10.7,20.2,7.1v11.2c0,1.6-1,3.4-4,2.9-23.9-7.9-41-30.4-41-56.9s26.9-60,60-60,60,26.9,60,60Z" fill="#fff" stroke-width="0"/>
</svg>